<?xml version="1.0"?>
<?xml-stylesheet href="../css/svg.css" type="text/css"?>
<svg xmlns="http://www.w3.org/2000/svg" width="100%" height="100%" viewBox="0 0 327.9 160.7" class="undefined">
<style>.a{fill:none;stroke-dasharray:4;stroke:#5EBD74;}.b{fill:#FFF;stroke-width:3;stroke:#5EBD74;}.c{fill:#FFF;}.d{fill:none;stroke-width:3;stroke:#5EBD74;}.e{fill:none;stroke-width:3;stroke:#735DA8;}.f{fill:#FFF;stroke-dasharray:4;stroke-width:2;stroke:#735DA8;}.g{fill:#FFF200;}.h{fill:#181819;}.i{fill:none;stroke-dasharray:4;stroke-width:2;stroke:#735DA8;}</style>
<g class="undefined">
    <line x1="36.1" y1="33.2" x2="307.8" y2="33.2" class="green-dashed"/>
    <line y1="49.2" x2="271.7" y2="49.2" class="green-dashed"/>
    <line x1="56.3" y1="65.2" x2="327.9" y2="65.2" class="green-dashed"/>
    <line x1="20.2" y1="81.3" x2="291.8" y2="81.3" class="green-dashed"/>
    <line x1="56.3" y1="97.3" x2="327.9" y2="97.3" class="green-dashed"/>
    <line y1="113.3" x2="271.7" y2="113.3" class="green-dashed"/>
    <line x1="36.1" y1="129.3" x2="307.8" y2="129.3" class="green-dashed"/>
</g>
<g class="pipeline_c">
    <path d="M256 115.5c0-2.2-1.8-4-4-4h-8c-2.2 0-4 1.8-4 4v11c0 2.2-1.8 4-4 4h-11c-2.2 0-4 1.8-4 4v8c0 2.2 1.8 4 4 4h15c0 0 16 1.2 16-17.5C256 110.3 256 115.5 256 115.5z" class="green-bold"/>
    <path d="M226.2 146.5c0 2.2-1.8 4-4 4h-2.5c-2.2 0-4-1.8-4-4v-15.8c0-2.2 1.8-4 4-4h2.5c2.2 0 4 1.8 4 4V146.5z" class="green-bold"/>
    <rect x="239.8" y="49.6" width="16" height="63" class="green-bold"/>
    <path d="M239.9 107.3c-2.2 0-4 1.8-4 4v2.5c0 2.2 1.8 4 4 4h15.8c2.2 0 4-1.8 4-4v-2.5c0-2.2-1.8-4-4-4H239.9z" class="green-bold"/>
    <path d="M256 45.2c0 2.2-1.8 4-4 4h-8c-2.2 0-4-1.8-4-4V34.2c0-2.2-1.8-4-4-4h-11c-2.2 0-4-1.8-4-4v-8c0-2.2 1.8-4 4-4h15c0 0 16-1.2 16 17.5C256 50.4 256 45.2 256 45.2z" class="green-bold"/>
    <path d="M240.1 44c-2.2 0-4 1.8-4 4v2.5c0 2.2 1.8 4 4 4h15.8c2.2 0 4-1.8 4-4v-2.5c0-2.2-1.8-4-4-4H240.1z" class="green-bold"/>
    <path d="M226.2 14.3c0-2.2-1.8-4-4-4h-2.5c-2.2 0-4 1.8-4 4v15.8c0 2.2 1.8 4 4 4h2.5c2.2 0 4-1.8 4-4V14.3z" class="green-bold"/>
</g>
<g class="semafor">
    <g class="semafor_body">
        <path d="M217.2 155.2c0 2.2-1.8 4-4 4h-59.7c-2.2 0-4-1.8-4-4V5.5c0-2.2 1.8-4 4-4h59.7c2.2 0 4 1.8 4 4V155.2z" class="violet-bold"/>
    </g>
    <circle cx="183.4" cy="32.3" r="19.2" class="violet-dashed"/>
    <circle cx="183.4" cy="80.4" r="19.2" class="violet-dashed"/>
    <circle cx="183.4" cy="128.5" r="19.2" class="violet-dashed"/>
    <circle cx="183.5" cy="128.5" r="14.1" class="yellow"/>
    <circle cx="183.5" cy="128.5" r="7.9" class="dark"/>
    <circle cx="183.5" cy="80.4" r="14.1" class="yellow"/>
    <path d="M189.5 75h-11.9c-0.5 0-1 0.4-1 1v0.1 3 5.7c0 0.5 0.4 1 1 1h11.9c0.5 0 1-0.4 1-1v-5.7 -3 -0.1C190.5 75.5 190 75 189.5 75zM188.5 83.8h-10v-4.7h10V83.8z" class="dark"/>
    <circle cx="183.5" cy="32.3" r="14.1" class="yellow"/>
    <rect x="178.7" y="35.5" width="10" height="1.9" class="dark"/>
</g>
<g class="cog">
	<path d="M125.7 88.4c2.2 0 4-1.8 4-4v-6.3c0-2.2-1.8-4-4-4h0c-2.2 0-4.4-1.1-4.9-2.5s-0.9-6.1 0.6-7.7l0 0c1.6-1.6 1.6-4.1 0-5.7l-4.5-4.5c-1.6-1.6-4.1-1.6-5.7 0l0 0c-1.6 1.6-3.9 2.3-5.2 1.6s-5-3.7-5-5.9v0c0-2.2-1.8-4-4-4h-6.3c-2.2 0-4 1.8-4 4v0c0 2.2-1.1 4.4-2.6 4.9s-6.1 0.9-7.7-0.6l0 0c-1.6-1.6-4.1-1.6-5.7 0l-4.5 4.5c-1.6 1.6-1.6 4.1 0 5.7l0 0c1.6 1.6 2.3 3.9 1.6 5.2s-3.7 5-5.9 5h0c-2.2 0-4 1.8-4 4v6.3c0 2.2 1.8 4 4 4h0c2.2 0 4.4 1.1 4.9 2.6s0.9 6.1-0.6 7.7l0 0c-1.6 1.6-1.6 4.1 0 5.7l4.5 4.5c1.6 1.6 4.1 1.6 5.7 0l0 0c1.6-1.6 3.9-2.3 5.2-1.6 1.3 0.7 5 3.7 5 5.9v0c0 2.2 1.8 4 4 4h6.3c2.2 0 4-1.8 4-4v0c0-2.2 1.1-4.4 2.6-4.9s6.1-0.9 7.7 0.6l0 0c1.6 1.6 4.1 1.6 5.7 0l4.5-4.5c1.6-1.6 1.6-4.1 0-5.7l0 0c-1.6-1.6-2.3-3.9-1.6-5.2 0.7-1.3 3.7-5 5.9-5H125.7zM108.3 81.3c0 7.9-6.4 14.3-14.3 14.3 -7.9 0-14.3-6.4-14.3-14.3 0-7.9 6.4-14.3 14.3-14.3S108.3 73.4 108.3 81.3z" class="violet-bold"/>
   <circle cx="94" cy="81.3" r="20.8" class="violet-dashed"/>
</g>
</svg>
