<?xml version="1.0"?>
<?xml-stylesheet href="../css/svg.css" type="text/css"?>
<svg xmlns="http://www.w3.org/2000/svg" width="177" height="1894" viewBox="0 0 177.5 1893.7">
<style>.a{fill:#FFF;}.b{fill:none;stroke-width:3;stroke:#735DA8;}.c{fill:#FFF;stroke-dasharray:4;stroke-width:2;stroke:#735DA8;}.d{fill:#FFF200;}.e{fill:#181819;}.f{fill:#FFF;stroke-width:3;stroke:#735DA8;}.g{fill:none;stroke-width:2;stroke:#735DA8;}.h{fill:none;stroke-dasharray:4;stroke-width:2;stroke:#735DA8;}.i{fill:#5EBD74;}.j{fill:#FFF;stroke-dasharray:4;stroke-width:2;stroke:#5EBD74;}.k{fill:#FFF;stroke-linejoin:round;stroke-width:3;stroke:#735DA8;}</style>
<g>
    <g>
        <path d="M174 474.7c0 2.2-1.8 4-4 4h-68c-2.2 0-4-1.8-4-4v-80.2c0-2.2 1.8-4 4-4h68c2.2 0 4 1.8 4 4V474.7z" class="violet-bold"/>
        <path d="M174 474.7c0 2.2-1.8 4-4 4h-68c-2.2 0-4-1.8-4-4v-80.2c0-2.2 1.8-4 4-4h68c2.2 0 4 1.8 4 4V474.7z" class="violet-bold"/>
    </g>
    <circle cx="140.1" cy="447.6" r="19.2" class="violet-dashed"/>
    <circle cx="140.3" cy="447.6" r="14.1" class="yellow"/>
    <path d="M146.2 442.3h-11.9c-0.5 0-1 0.4-1 1v0.1 3 5.7c0 0.5 0.4 1 1 1h11.9c0.5 0 1-0.4 1-1v-5.7 -3 -0.1C147.2 442.7 146.8 442.3 146.2 442.3zM145.2 451.1h-10v-4.7h10V451.1z" class="dark" style="display: none"/>
    <polyline points="146.2 446.6 140.5 450.6 134.8 446.6" class="dark-stroke"/>
</g>
<g>
    <g>
        <path d="M-916.5 164.9c-2.2 0-4-1.8-4-4v-2.5c0-2.2 1.8-4 4-4h15.8c2.2 0 4 1.8 4 4v2.5c0 2.2-1.8 4-4 4H-916.5z" class="violet-bold"/>
    </g>
    <g>
        <path d="M-916.5 101.9c-2.2 0-4-1.8-4-4v-2.5c0-2.2 1.8-4 4-4h15.8c2.2 0 4 1.8 4 4v2.5c0 2.2-1.8 4-4 4H-916.5z" class="violet-bold"/>
        <path d="M-916.5 101.9c-2.2 0-4-1.8-4-4v-2.5c0-2.2 1.8-4 4-4h15.8c2.2 0 4 1.8 4 4v2.5c0 2.2-1.8 4-4 4H-916.5z" class="violet-bold"/>
    </g>
</g>
<g>
    <rect x="142.9" y="6.7" width="16" height="63" class="violet-bold"/>
    <g>
        <path d="M143 12c-2.2 0-4-1.8-4-4V5.5c0-2.2 1.8-4 4-4h15.8c2.2 0 4 1.8 4 4v2.5c0 2.2-1.8 4-4 4H143z" class="violet-bold"/>
        <path d="M143 12c-2.2 0-4-1.8-4-4V5.5c0-2.2 1.8-4 4-4h15.8c2.2 0 4 1.8 4 4v2.5c0 2.2-1.8 4-4 4H143z" class="violet-bold"/>
    </g>
</g>
<g>
    <rect x="142.9" y="70.5" width="16" height="63" class="violet-bold"/>
    <g>
        <path d="M143 75.7c-2.2 0-4-1.8-4-4V69.2c0-2.2 1.8-4 4-4h15.8c2.2 0 4 1.8 4 4v2.5c0 2.2-1.8 4-4 4H143z" class="violet-bold"/>
        <path d="M143 75.7c-2.2 0-4-1.8-4-4V69.2c0-2.2 1.8-4 4-4h15.8c2.2 0 4 1.8 4 4v2.5c0 2.2-1.8 4-4 4H143z" class="violet-bold"/>
    </g>
</g>
<g>
    <rect x="142.9" y="133.4" width="16" height="63" class="violet-bold"/>
    <g>
        <path d="M143 138.6c-2.2 0-4-1.8-4-4v-2.5c0-2.2 1.8-4 4-4h15.8c2.2 0 4 1.8 4 4v2.5c0 2.2-1.8 4-4 4H143z" class="violet-bold"/>
        <path d="M143 138.6c-2.2 0-4-1.8-4-4v-2.5c0-2.2 1.8-4 4-4h15.8c2.2 0 4 1.8 4 4v2.5c0 2.2-1.8 4-4 4H143z" class="violet-bold"/>
    </g>
</g>
<g>
    <rect x="142.9" y="197.1" width="16" height="63" class="violet-bold"/>
    <g>
        <path d="M143 202.4c-2.2 0-4-1.8-4-4v-2.5c0-2.2 1.8-4 4-4h15.8c2.2 0 4 1.8 4 4v2.5c0 2.2-1.8 4-4 4H143z" class="violet-bold"/>
        <path d="M143 202.4c-2.2 0-4-1.8-4-4v-2.5c0-2.2 1.8-4 4-4h15.8c2.2 0 4 1.8 4 4v2.5c0 2.2-1.8 4-4 4H143z" class="violet-bold"/>
    </g>
</g>
<g>
    <g>
        <path d="M-847.5-78.5c0-2.2-1.8-4-4-4h-8c-2.2 0-4 1.8-4 4v11c0 2.2-1.8 4-4 4h-11c-2.2 0-4 1.8-4 4v8c0 2.2 1.8 4 4 4h15c0 0 16 1.2 16-17.5S-847.5-78.5-847.5-78.5z" class="violet-bold"/>
    </g>
    <g>
        <path d="M-863.4-77.3c-2.2 0-4-1.8-4-4v-2.5c0-2.2 1.8-4 4-4h15.8c2.2 0 4 1.8 4 4v2.5c0 2.2-1.8 4-4 4H-863.4z" class="violet-bold"/>
        <path d="M-863.4-77.3c-2.2 0-4-1.8-4-4v-2.5c0-2.2 1.8-4 4-4h15.8c2.2 0 4 1.8 4 4v2.5c0 2.2-1.8 4-4 4H-863.4z" class="violet-bold"/>
    </g>
</g>
<g>
    <g>
        <path d="M-723.5-78.5c0-2.2 1.8-4 4-4h8c2.2 0 4 1.8 4 4v11c0 2.2 1.8 4 4 4h11c2.2 0 4 1.8 4 4v8c0 2.2-1.8 4-4 4h-15c0 0-16 1.2-16-17.5S-723.5-78.5-723.5-78.5z" class="violet-bold"/>
    </g>
    <g>
        <path d="M-707.5-77.3c2.2 0 4-1.8 4-4v-2.5c0-2.2-1.8-4-4-4h-15.8c-2.2 0-4 1.8-4 4v2.5c0 2.2 1.8 4 4 4H-707.5z" class="violet-bold"/>
        <path d="M-707.5-77.3c2.2 0 4-1.8 4-4v-2.5c0-2.2-1.8-4-4-4h-15.8c-2.2 0-4 1.8-4 4v2.5c0 2.2 1.8 4 4 4H-707.5z" class="violet-bold"/>
    </g>
</g>
<g>
    <g>
        <path d="M-604.5-82.1c-2.2 0-4 1.8-4 4v8c0 2.2 1.8 4 4 4h11c2.2 0 4 1.8 4 4v11c0 2.2 1.8 4 4 4h8c2.2 0 4-1.8 4-4v-15c0 0 1.2-16-17.5-16S-604.5-82.1-604.5-82.1z" class="violet-bold"/>
    </g>
    <g>
        <path d="M-603.3-66.2c0 2.2-1.8 4-4 4h-2.5c-2.2 0-4-1.8-4-4v-15.8c0-2.2 1.8-4 4-4h2.5c2.2 0 4 1.8 4 4V-66.2z" class="violet-bold"/>
        <path d="M-603.3-66.2c0 2.2-1.8 4-4 4h-2.5c-2.2 0-4-1.8-4-4v-15.8c0-2.2 1.8-4 4-4h2.5c2.2 0 4 1.8 4 4V-66.2z" class="violet-bold"/>
    </g>
    <g>
        <path d="M-573.6-52.3c2.2 0 4 1.8 4 4v2.5c0 2.2-1.8 4-4 4H-589.4c-2.2 0-4-1.8-4-4v-2.5c0-2.2 1.8-4 4-4H-573.6z" class="violet-bold"/>
        <path d="M-573.6-52.3c2.2 0 4 1.8 4 4v2.5c0 2.2-1.8 4-4 4H-589.4c-2.2 0-4-1.8-4-4v-2.5c0-2.2 1.8-4 4-4H-573.6z" class="violet-bold"/>
    </g>
</g>
<g>
    <g>
        <path d="M-886.7-63.7c2.2 0 4 1.8 4 4v8c0 2.2-1.8 4-4 4h-11c-2.2 0-4 1.8-4 4v11c0 2.2-1.8 4-4 4h-8c-2.2 0-4-1.8-4-4v-15c0 0-1.2-16 17.5-16S-886.7-63.7-886.7-63.7z" class="violet-bold"/>
    </g>
    <g>
        <path d="M-887.9-47.8c0 2.2 1.8 4 4 4h2.5c2.2 0 4-1.8 4-4v-15.8c0-2.2-1.8-4-4-4h-2.5c-2.2 0-4 1.8-4 4V-47.8z" class="violet-bold"/>
        <path d="M-887.9-47.8c0 2.2 1.8 4 4 4h2.5c2.2 0 4-1.8 4-4v-15.8c0-2.2-1.8-4-4-4h-2.5c-2.2 0-4 1.8-4 4V-47.8z" class="violet-bold"/>
    </g>
</g>
<g>
    <g>
        <path d="M-684.4-63.7c-2.2 0-4 1.8-4 4v8c0 2.2 1.8 4 4 4h11c2.2 0 4 1.8 4 4v11c0 2.2 1.8 4 4 4h8c2.2 0 4-1.8 4-4v-15c0 0 1.2-16-17.5-16S-684.4-63.7-684.4-63.7z" class="violet-bold"/>
    </g>
    <g>
        <path d="M-683.2-47.8c0 2.2-1.8 4-4 4h-2.5c-2.2 0-4-1.8-4-4v-15.8c0-2.2 1.8-4 4-4h2.5c2.2 0 4 1.8 4 4V-47.8z" class="violet-bold"/>
        <path d="M-683.2-47.8c0 2.2-1.8 4-4 4h-2.5c-2.2 0-4-1.8-4-4v-15.8c0-2.2 1.8-4 4-4h2.5c2.2 0 4 1.8 4 4V-47.8z" class="violet-bold"/>
    </g>
</g>
<g>
    <path d="M-508.9-20.9h50.9c0-7.9-5.7-14.8-14-18.2 0.2-0.4 0.3-0.8 0.3-1.2v-1.9c0-1.5-1.2-2.7-2.7-2.7h-18c-1.5 0-2.7 1.2-2.7 2.7v1.9c0 0.4 0.1 0.9 0.3 1.2C-503.2-35.7-508.9-28.8-508.9-20.9z" class="violet-bold"/>
    <g>
        <path d="M-475.6-48.9c2.2 0 4 1.8 4 4v2.5c0 2.2-1.8 4-4 4h-15.8c-2.2 0-4-1.8-4-4v-2.5c0-2.2 1.8-4 4-4H-475.6z" class="violet-bold"/>
        <path d="M-475.6-48.9c2.2 0 4 1.8 4 4v2.5c0 2.2-1.8 4-4 4h-15.8c-2.2 0-4-1.8-4-4v-2.5c0-2.2 1.8-4 4-4H-475.6z" class="violet-bold"/>
    </g>
    <g>
        <g>
            <line x1="-504.4" y1="-11.7" x2="-505.8" y2="-10.3" class="g"/>
            <line x1="-508.4" y1="-7.8" x2="-527.6" y2="11.5" class="violet-dashed"/>
            <line x1="-528.9" y1="12.8" x2="-530.3" y2="14.2" class="g"/>
        </g>
    </g>
    <g>
        <g>
            <line x1="-483.5" y1="-11.7" x2="-483.5" y2="-9.7" class="g"/>
            <line x1="-483.5" y1="-6" x2="-483.5" y2="22.4" class="violet-dashed"/>
            <line x1="-483.5" y1="24.3" x2="-483.5" y2="26.3" class="g"/>
        </g>
    </g>
    <g>
        <g>
            <line x1="-474.5" y1="-11.7" x2="-473.7" y2="-9.9" class="g"/>
            <line x1="-472" y1="-6.3" x2="-459.2" y2="20.7" class="violet-dashed"/>
            <line x1="-458.4" y1="22.5" x2="-457.5" y2="24.3" class="g"/>
        </g>
    </g>
    <g>
        <g>
            <line x1="-509.5" y1="24.3" x2="-508.6" y2="22.5" class="g"/>
            <line x1="-506.9" y1="18.9" x2="-494.2" y2="-8.1" class="violet-dashed"/>
            <line x1="-493.4" y1="-9.9" x2="-492.5" y2="-11.7" class="g"/>
        </g>
    </g>
    <g>
        <g>
            <line x1="-462.6" y1="-11.7" x2="-461.1" y2="-10.3" class="g"/>
            <line x1="-458.6" y1="-7.8" x2="-439.3" y2="11.5" class="violet-dashed"/>
            <line x1="-438" y1="12.8" x2="-436.6" y2="14.2" class="g"/>
        </g>
    </g>
</g>
<g>
    <g>
        <path d="M160 264.4c0-2.2-1.8-4-4-4h-8c-2.2 0-4 1.8-4 4v11c0 2.2-1.8 4-4 4h-11c-2.2 0-4 1.8-4 4v8c0 2.2 1.8 4 4 4h15c0 0 16 1.2 16-17.5S160 264.4 160 264.4z" class="violet-bold"/>
    </g>
    <g>
        <path d="M144.1 265.7c-2.2 0-4-1.8-4-4v-2.5c0-2.2 1.8-4 4-4h15.8c2.2 0 4 1.8 4 4v2.5c0 2.2-1.8 4-4 4H144.1z" class="violet-bold"/>
        <path d="M144.1 265.7c-2.2 0-4-1.8-4-4v-2.5c0-2.2 1.8-4 4-4h15.8c2.2 0 4 1.8 4 4v2.5c0 2.2-1.8 4-4 4H144.1z" class="violet-bold"/>
    </g>
</g>
<g>
    <g>
        <path d="M120.8 279.2c2.2 0 4 1.8 4 4v8c0 2.2-1.8 4-4 4h-11c-2.2 0-4 1.8-4 4v11c0 2.2-1.8 4-4 4h-8c-2.2 0-4-1.8-4-4v-15c0 0-1.2-16 17.5-16C126.1 279.2 120.8 279.2 120.8 279.2z" class="violet-bold"/>
    </g>
    <g>
        <path d="M119.6 295.1c0 2.2 1.8 4 4 4h2.5c2.2 0 4-1.8 4-4v-15.8c0-2.2-1.8-4-4-4h-2.5c-2.2 0-4 1.8-4 4V295.1z" class="violet-bold"/>
        <path d="M119.6 295.1c0 2.2 1.8 4 4 4h2.5c2.2 0 4-1.8 4-4v-15.8c0-2.2-1.8-4-4-4h-2.5c-2.2 0-4 1.8-4 4V295.1z" class="violet-bold"/>
    </g>
</g>
<g>
    <rect x="90" y="313" width="16" height="63" class="violet-bold"/>
    <g>
        <path d="M90.1 318.2c-2.2 0-4-1.8-4-4v-2.5c0-2.2 1.8-4 4-4h15.8c2.2 0 4 1.8 4 4v2.5c0 2.2-1.8 4-4 4H90.1z" class="violet-bold"/>
        <path d="M90.1 318.2c-2.2 0-4-1.8-4-4v-2.5c0-2.2 1.8-4 4-4h15.8c2.2 0 4 1.8 4 4v2.5c0 2.2-1.8 4-4 4H90.1z" class="violet-bold"/>
    </g>
</g>
<g>
    <rect x="90" y="376.7" width="16" height="63" class="violet-bold"/>
    <g>
        <path d="M90.1 381.9c-2.2 0-4-1.8-4-4v-2.5c0-2.2 1.8-4 4-4h15.8c2.2 0 4 1.8 4 4v2.5c0 2.2-1.8 4-4 4H90.1z" class="violet-bold"/>
        <path d="M90.1 381.9c-2.2 0-4-1.8-4-4v-2.5c0-2.2 1.8-4 4-4h15.8c2.2 0 4 1.8 4 4v2.5c0 2.2-1.8 4-4 4H90.1z" class="violet-bold"/>
    </g>
</g>
<g>
    <rect x="90" y="439.6" width="16" height="63" class="violet-bold"/>
    <g>
        <path d="M90.1 444.9c-2.2 0-4-1.8-4-4v-2.5c0-2.2 1.8-4 4-4h15.8c2.2 0 4 1.8 4 4v2.5c0 2.2-1.8 4-4 4H90.1z" class="violet-bold"/>
        <path d="M90.1 444.9c-2.2 0-4-1.8-4-4v-2.5c0-2.2 1.8-4 4-4h15.8c2.2 0 4 1.8 4 4v2.5c0 2.2-1.8 4-4 4H90.1z" class="violet-bold"/>
    </g>
</g>
<g>
    <rect x="90" y="503.4" width="16" height="63" class="violet-bold"/>
    <g>
        <path d="M90.1 508.6c-2.2 0-4-1.8-4-4v-2.5c0-2.2 1.8-4 4-4h15.8c2.2 0 4 1.8 4 4v2.5c0 2.2-1.8 4-4 4H90.1z" class="violet-bold"/>
        <path d="M90.1 508.6c-2.2 0-4-1.8-4-4v-2.5c0-2.2 1.8-4 4-4h15.8c2.2 0 4 1.8 4 4v2.5c0 2.2-1.8 4-4 4H90.1z" class="violet-bold"/>
    </g>
</g>
<circle cx="155.4" cy="409.2" r="3.9" class="green"/>
<g>
    <g>
        <path d="M-981.5 266.7c0 2.2-1.8 4-4 4h-124c-2.2 0-4-1.8-4-4V249.4c0-2.2 1.8-4 4-4h124c2.2 0 4 1.8 4 4V266.7z" class="violet-bold"/>
        <path d="M-981.5 266.7c0 2.2-1.8 4-4 4h-124c-2.2 0-4-1.8-4-4V249.4c0-2.2 1.8-4 4-4h124c2.2 0 4 1.8 4 4V266.7z" style="violet-bold"/>
    </g>
    <line x1="-1098.3" y1="245.4" x2="-1098.3" y2="258.1" class="j"/>
    <line x1="-1083.6" y1="245.4" x2="-1083.6" y2="258.1" class="j"/>
    <line x1="-1069" y1="245.4" x2="-1069" y2="258.1" class="j"/>
    <line x1="-1054.3" y1="245.4" x2="-1054.3" y2="258.1" class="j"/>
    <line x1="-1039.7" y1="245.4" x2="-1039.7" y2="258.1" class="j"/>
    <line x1="-1025" y1="245.4" x2="-1025" y2="258.1" class="j"/>
    <line x1="-1010.4" y1="245.4" x2="-1010.4" y2="258.1" class="j"/>
    <line x1="-995.7" y1="245.4" x2="-995.7" y2="258.1" class="j"/>
</g>
<line x1="121.6" y1="390.5" x2="121.6" y2="413.1" class="violet-dashed"/>
<line x1="132" y1="390.5" x2="132" y2="413.1" class="violet-dashed"/>
<g>
    <g>
        <path d="M90 570.2c0-2.2 1.8-4 4-4h8c2.2 0 4 1.8 4 4v11c0 2.2 1.8 4 4 4h11c2.2 0 4 1.8 4 4v8c0 2.2-1.8 4-4 4h-15c0 0-16 1.2-16-17.5S90 570.2 90 570.2z" class="violet-bold"/>
    </g>
    <g>
        <path d="M105.9 571.5c2.2 0 4-1.8 4-4v-2.5c0-2.2-1.8-4-4-4H90.1c-2.2 0-4 1.8-4 4v2.5c0 2.2 1.8 4 4 4H105.9z" class="violet-bold"/>
        <path d="M105.9 571.5c2.2 0 4-1.8 4-4v-2.5c0-2.2-1.8-4-4-4H90.1c-2.2 0-4 1.8-4 4v2.5c0 2.2 1.8 4 4 4H105.9z" class="violet-bold"/>
    </g>
</g>
<g>
    <g>
        <path d="M129 585c-2.2 0-4 1.8-4 4v8c0 2.2 1.8 4 4 4h11c2.2 0 4 1.8 4 4v11c0 2.2 1.8 4 4 4h8c2.2 0 4-1.8 4-4v-15c0 0 1.2-16-17.5-16S129 585 129 585z" class="violet-bold"/>
    </g>
    <g>
        <path d="M130.2 600.9c0 2.2-1.8 4-4 4h-2.5c-2.2 0-4-1.8-4-4v-15.8c0-2.2 1.8-4 4-4h2.5c2.2 0 4 1.8 4 4V600.9z" class="violet-bold"/>
        <path d="M130.2 600.9c0 2.2-1.8 4-4 4h-2.5c-2.2 0-4-1.8-4-4v-15.8c0-2.2 1.8-4 4-4h2.5c2.2 0 4 1.8 4 4V600.9z" class="violet-bold"/>
    </g>
</g>
<g>
    <rect x="143.4" y="619.5" width="16" height="63" class="violet-bold"/>
    <g>
        <path d="M143.5 624.7c-2.2 0-4-1.8-4-4v-2.5c0-2.2 1.8-4 4-4h15.8c2.2 0 4 1.8 4 4v2.5c0 2.2-1.8 4-4 4H143.5z" class="violet-bold"/>
        <path d="M143.5 624.7c-2.2 0-4-1.8-4-4v-2.5c0-2.2 1.8-4 4-4h15.8c2.2 0 4 1.8 4 4v2.5c0 2.2-1.8 4-4 4H143.5z" class="violet-bold"/>
    </g>
</g>
<g>
    <rect x="143.4" y="683.2" width="16" height="63" class="violet-bold"/>
    <g>
        <path d="M143.5 688.4c-2.2 0-4-1.8-4-4v-2.5c0-2.2 1.8-4 4-4h15.8c2.2 0 4 1.8 4 4v2.5c0 2.2-1.8 4-4 4H143.5z" class="violet-bold"/>
        <path d="M143.5 688.4c-2.2 0-4-1.8-4-4v-2.5c0-2.2 1.8-4 4-4h15.8c2.2 0 4 1.8 4 4v2.5c0 2.2-1.8 4-4 4H143.5z" class="violet-bold"/>
    </g>
</g>
<g>
    <rect x="143.4" y="746.1" width="16" height="63" class="violet-bold"/>
    <g>
        <path d="M143.5 751.4c-2.2 0-4-1.8-4-4v-2.5c0-2.2 1.8-4 4-4h15.8c2.2 0 4 1.8 4 4v2.5c0 2.2-1.8 4-4 4H143.5z" class="violet-bold"/>
        <path d="M143.5 751.4c-2.2 0-4-1.8-4-4v-2.5c0-2.2 1.8-4 4-4h15.8c2.2 0 4 1.8 4 4v2.5c0 2.2-1.8 4-4 4H143.5z" class="violet-bold"/>
    </g>
    <g>
        <rect x="138.4" y="813.3" width="26" height="84" class="violet-bold"/>
        <g>
            <path d="M138.5 902.5c-2.2 0-4-1.8-4-4v-2.5c0-2.2 1.8-4 4-4h25.8c2.2 0 4 1.8 4 4v2.5c0 2.2-1.8 4-4 4H138.5z" class="violet-bold"/>
            <path d="M138.5 902.5c-2.2 0-4-1.8-4-4v-2.5c0-2.2 1.8-4 4-4h25.8c2.2 0 4 1.8 4 4v2.5c0 2.2-1.8 4-4 4H138.5z" class="violet-bold"/>
        </g>
        <g>
            <path d="M138.5 813.3c-2.2 0-4-1.8-4-4v-23.4c0-2.2 1.8-4 4-4h25.8c2.2 0 4 1.8 4 4v23.4c0 2.2-1.8 4-4 4H138.5z" class="violet-bold"/>
            <path d="M138.5 813.3c-2.2 0-4-1.8-4-4v-23.4c0-2.2 1.8-4 4-4h25.8c2.2 0 4 1.8 4 4v23.4c0 2.2-1.8 4-4 4H138.5z" class="violet-bold"/>
        </g>
    </g>
    <line x1="138.4" y1="820.9" x2="164.5" y2="820.9" class="violet-bold"/>
    <line x1="138.4" y1="828.9" x2="164.5" y2="828.9" class="violet-bold"/>
    <line x1="138.4" y1="836.9" x2="164.5" y2="836.9" class="violet-bold"/>
    <line x1="138.4" y1="844.9" x2="164.5" y2="844.9" class="violet-bold"/>
    <line x1="138.4" y1="852.9" x2="164.5" y2="852.9" class="violet-bold"/>
    <line x1="138.4" y1="860.9" x2="164.5" y2="860.9" class="violet-bold"/>
    <line x1="138.4" y1="868.9" x2="164.5" y2="868.9" class="violet-bold"/>
    <line x1="138.4" y1="876.9" x2="164.5" y2="876.9" class="violet-bold"/>
    <line x1="138.4" y1="884.9" x2="164.5" y2="884.9" class="violet-bold"/>
</g>
<g>
    <path d="M159.3 998.1v-32.6h-16.3v32.6c0 0 0 7.7 8.1 7.7S159.3 998.1 159.3 998.1z" class="violet-bold"/>
    <g>
        <path d="M163.1 961.8c0-2-1.8-3.6-4-3.6h-15.3c-2.2 0-4 1.6-4 3.6s1.8 3.6 4 3.6h15.3C161.3 965.4 163.1 963.7 163.1 961.8z" class="violet-bold"/>
        <path d="M163.1 961.8c0-2-1.8-3.6-4-3.6h-15.3c-2.2 0-4 1.6-4 3.6s1.8 3.6 4 3.6h15.3C161.3 965.4 163.1 963.7 163.1 961.8z" class="violet-bold"/>
    </g>
    <line x1="142.8" y1="976.3" x2="159.3" y2="976.3" class="violet-dashed"/>
</g>
<g>
    <g>
        <path d="M160.1 1043.9c0-2.2-1.8-4-4-4h-8c-2.2 0-4 1.8-4 4v11c0 2.2-1.8 4-4 4h-11c-2.2 0-4 1.8-4 4v8c0 2.2 1.8 4 4 4h15c0 0 16 1.2 16-17.5S160.1 1043.9 160.1 1043.9z" class="violet-bold"/>
    </g>
    <g>
        <path d="M144.2 1045.1c-2.2 0-4-1.8-4-4v-2.5c0-2.2 1.8-4 4-4h15.8c2.2 0 4 1.8 4 4v2.5c0 2.2-1.8 4-4 4H144.2z" class="violet-bold"/>
        <path d="M144.2 1045.1c-2.2 0-4-1.8-4-4v-2.5c0-2.2 1.8-4 4-4h15.8c2.2 0 4 1.8 4 4v2.5c0 2.2-1.8 4-4 4H144.2z" class="violet-bold"/>
    </g>
</g>
<g>
    <g>
        <path d="M120.9 1058.7c2.2 0 4 1.8 4 4v8c0 2.2-1.8 4-4 4h-11c-2.2 0-4 1.8-4 4v11c0 2.2-1.8 4-4 4h-8c-2.2 0-4-1.8-4-4v-15c0 0-1.2-16 17.5-16C126.1 1058.7 120.9 1058.7 120.9 1058.7z" class="violet-bold"/>
    </g>
    <g>
        <path d="M119.6 1074.6c0 2.2 1.8 4 4 4h2.5c2.2 0 4-1.8 4-4v-15.8c0-2.2-1.8-4-4-4h-2.5c-2.2 0-4 1.8-4 4V1074.6z" class="violet-bold"/>
        <path d="M119.6 1074.6c0 2.2 1.8 4 4 4h2.5c2.2 0 4-1.8 4-4v-15.8c0-2.2-1.8-4-4-4h-2.5c-2.2 0-4 1.8-4 4V1074.6z" class="violet-bold"/>
    </g>
</g>
<g>
    <path d="M130.9 1036.1c-2.2 0-4-1.8-4-4v-37.6c0-2.2 1.8-4 4-4h41.1c2.2 0 4 1.8 4 4v37.6c0 2.2-1.8 4-4 4H130.9z" class="violet-bold"/>
    <path d="M130.9 1036.1c-2.2 0-4-1.8-4-4v-37.6c0-2.2 1.8-4 4-4h41.1c2.2 0 4 1.8 4 4v37.6c0 2.2-1.8 4-4 4H130.9z" class="violet-bold"/>
</g>
<g>
    <circle cx="151.2" cy="1013.3" r="14.1" class="yellow"/>
    <circle cx="151.2" cy="1013.3" r="7.9" class="dark"/>
</g>
<g>
    <rect x="90.1" y="1091.7" width="16" height="63" class="violet-bold"/>
    <g>
        <path d="M90.2 1097c-2.2 0-4-1.8-4-4v-2.5c0-2.2 1.8-4 4-4h15.8c2.2 0 4 1.8 4 4v2.5c0 2.2-1.8 4-4 4H90.2z" class="violet-bold"/>
        <path d="M90.2 1097c-2.2 0-4-1.8-4-4v-2.5c0-2.2 1.8-4 4-4h15.8c2.2 0 4 1.8 4 4v2.5c0 2.2-1.8 4-4 4H90.2z" class="violet-bold"/>
    </g>
</g>
<g>
    <rect x="90.1" y="1155.5" width="16" height="63" class="violet-bold"/>
    <g>
        <path d="M90.2 1160.7c-2.2 0-4-1.8-4-4v-2.5c0-2.2 1.8-4 4-4h15.8c2.2 0 4 1.8 4 4v2.5c0 2.2-1.8 4-4 4H90.2z" class="violet-bold"/>
        <path d="M90.2 1160.7c-2.2 0-4-1.8-4-4v-2.5c0-2.2 1.8-4 4-4h15.8c2.2 0 4 1.8 4 4v2.5c0 2.2-1.8 4-4 4H90.2z" class="violet-bold"/>
    </g>
</g>
<g>
    <g>
        <path d="M90.1 1222.4c0-2.2 1.8-4 4-4h8c2.2 0 4 1.8 4 4v11c0 2.2 1.8 4 4 4h11c2.2 0 4 1.8 4 4v8c0 2.2-1.8 4-4 4h-15c0 0-16 1.2-16-17.5S90.1 1222.4 90.1 1222.4z" class="violet-bold"/>
    </g>
    <g>
        <path d="M106 1223.6c2.2 0 4-1.8 4-4v-2.5c0-2.2-1.8-4-4-4H90.2c-2.2 0-4 1.8-4 4v2.5c0 2.2 1.8 4 4 4H106z" class="violet-bold"/>
        <path d="M106 1223.6c2.2 0 4-1.8 4-4v-2.5c0-2.2-1.8-4-4-4H90.2c-2.2 0-4 1.8-4 4v2.5c0 2.2 1.8 4 4 4H106z" class="violet-bold"/>
    </g>
</g>
<g>
    <g>
        <path d="M129.1 1237.2c-2.2 0-4 1.8-4 4v8c0 2.2 1.8 4 4 4h11c2.2 0 4 1.8 4 4v11c0 2.2 1.8 4 4 4h8c2.2 0 4-1.8 4-4v-15c0 0 1.2-16-17.5-16C123.8 1237.2 129.1 1237.2 129.1 1237.2z" class="violet-bold"/>
    </g>
    <g>
        <path d="M130.3 1253.1c0 2.2-1.8 4-4 4h-2.5c-2.2 0-4-1.8-4-4v-15.8c0-2.2 1.8-4 4-4h2.5c2.2 0 4 1.8 4 4V1253.1z" class="violet-bold"/>
        <path d="M130.3 1253.1c0 2.2-1.8 4-4 4h-2.5c-2.2 0-4-1.8-4-4v-15.8c0-2.2 1.8-4 4-4h2.5c2.2 0 4 1.8 4 4V1253.1z" class="violet-bold"/>
    </g>
</g>
<g>
    <path d="M71.6 1203.1V1170.5H55.3v32.6c0 0 0 7.7 8.1 7.7S71.6 1203.1 71.6 1203.1z" class="violet-bold"/>
    <g>
        <path d="M75.4 1166.8c0-2-1.8-3.6-4-3.6h-15.3c-2.2 0-4 1.6-4 3.6s1.8 3.6 4 3.6h15.3C73.6 1170.4 75.4 1168.7 75.4 1166.8z" class="violet-bold"/>
        <path d="M75.4 1166.8c0-2-1.8-3.6-4-3.6h-15.3c-2.2 0-4 1.6-4 3.6s1.8 3.6 4 3.6h15.3C73.6 1170.4 75.4 1168.7 75.4 1166.8z" class="violet-bold"/>
    </g>
    <line x1="55.1" y1="1181.3" x2="71.6" y2="1181.3" class="violet-dashed"/>
</g>
<rect x="49.1" y="1191.5" width="65.5" height="4.6" class="violet-bold"/>
<g>
    <g>
        <path d="M160.3 1277.2c0-2.2-1.8-4-4-4h-8c-2.2 0-4 1.8-4 4v11c0 2.2-1.8 4-4 4h-11c-2.2 0-4 1.8-4 4v8c0 2.2 1.8 4 4 4h15c0 0 16 1.2 16-17.5S160.3 1277.2 160.3 1277.2z" class="violet-bold"/>
    </g>
    <g>
        <path d="M144.4 1278.5c-2.2 0-4-1.8-4-4v-2.5c0-2.2 1.8-4 4-4h15.8c2.2 0 4 1.8 4 4v2.5c0 2.2-1.8 4-4 4H144.4z" class="violet-bold"/>
        <path d="M144.4 1278.5c-2.2 0-4-1.8-4-4v-2.5c0-2.2 1.8-4 4-4h15.8c2.2 0 4 1.8 4 4v2.5c0 2.2-1.8 4-4 4H144.4z" class="violet-bold"/>
    </g>
</g>
<g>
    <g>
        <path d="M121.1 1292c2.2 0 4 1.8 4 4v8c0 2.2-1.8 4-4 4h-11c-2.2 0-4 1.8-4 4v11c0 2.2-1.8 4-4 4h-8c-2.2 0-4-1.8-4-4v-15c0 0-1.2-16 17.5-16S121.1 1292 121.1 1292z" class="violet-bold"/>
    </g>
    <g>
        <path d="M119.9 1307.9c0 2.2 1.8 4 4 4h2.5c2.2 0 4-1.8 4-4v-15.8c0-2.2-1.8-4-4-4h-2.5c-2.2 0-4 1.8-4 4V1307.9z" class="violet-bold"/>
        <path d="M119.9 1307.9c0 2.2 1.8 4 4 4h2.5c2.2 0 4-1.8 4-4v-15.8c0-2.2-1.8-4-4-4h-2.5c-2.2 0-4 1.8-4 4V1307.9z" class="violet-bold"/>
    </g>
</g>
<g>
    <rect x="90.1" y="1326.7" width="16" height="63" class="violet-bold"/>
    <g>
        <path d="M90.2 1331.9c-2.2 0-4-1.8-4-4v-2.5c0-2.2 1.8-4 4-4h15.8c2.2 0 4 1.8 4 4v2.5c0 2.2-1.8 4-4 4H90.2z" class="violet-bold"/>
        <path d="M90.2 1331.9c-2.2 0-4-1.8-4-4v-2.5c0-2.2 1.8-4 4-4h15.8c2.2 0 4 1.8 4 4v2.5c0 2.2-1.8 4-4 4H90.2z" class="violet-bold"/>
    </g>
</g>
<g>
    <rect x="90.1" y="1390.4" width="16" height="63" class="violet-bold"/>
    <g>
        <path d="M90.2 1395.7c-2.2 0-4-1.8-4-4v-2.5c0-2.2 1.8-4 4-4h15.8c2.2 0 4 1.8 4 4v2.5c0 2.2-1.8 4-4 4H90.2z" class="violet-bold"/>
        <path d="M90.2 1395.7c-2.2 0-4-1.8-4-4v-2.5c0-2.2 1.8-4 4-4h15.8c2.2 0 4 1.8 4 4v2.5c0 2.2-1.8 4-4 4H90.2z" class="violet-bold"/>
    </g>
</g>
<g>
    <rect x="90.1" y="1453.4" width="16" height="63" class="violet-bold"/>
    <g>
        <path d="M90.2 1458.6c-2.2 0-4-1.8-4-4v-2.5c0-2.2 1.8-4 4-4h15.8c2.2 0 4 1.8 4 4v2.5c0 2.2-1.8 4-4 4H90.2z" class="violet-bold"/>
        <path d="M90.2 1458.6c-2.2 0-4-1.8-4-4v-2.5c0-2.2 1.8-4 4-4h15.8c2.2 0 4 1.8 4 4v2.5c0 2.2-1.8 4-4 4H90.2z" class="violet-bold"/>
    </g>
</g>
<g>
    <rect x="90.1" y="1517.1" width="16" height="63" class="violet-bold"/>
    <g>
        <path d="M90.2 1522.3c-2.2 0-4-1.8-4-4v-2.5c0-2.2 1.8-4 4-4h15.8c2.2 0 4 1.8 4 4v2.5c0 2.2-1.8 4-4 4H90.2z" class="violet-bold"/>
        <path d="M90.2 1522.3c-2.2 0-4-1.8-4-4v-2.5c0-2.2 1.8-4 4-4h15.8c2.2 0 4 1.8 4 4v2.5c0 2.2-1.8 4-4 4H90.2z" class="violet-bold"/>
    </g>
    <g>
        <path d="M90.2 1585.3c-2.2 0-4-1.8-4-4v-2.5c0-2.2 1.8-4 4-4h15.8c2.2 0 4 1.8 4 4v2.5c0 2.2-1.8 4-4 4H90.2z" class="violet-bold"/>
        <path d="M90.2 1585.3c-2.2 0-4-1.8-4-4v-2.5c0-2.2 1.8-4 4-4h15.8c2.2 0 4 1.8 4 4v2.5c0 2.2-1.8 4-4 4H90.2z" class="violet-bold"/>
    </g>
</g>
<g>
    <rect x="90.1" y="1702.5" width="16" height="63" class="violet-bold"/>
    <g>
        <path d="M90.2 1707.7c-2.2 0-4-1.8-4-4v-2.5c0-2.2 1.8-4 4-4h15.8c2.2 0 4 1.8 4 4v2.5c0 2.2-1.8 4-4 4H90.2z" class="violet-bold"/>
        <path d="M90.2 1707.7c-2.2 0-4-1.8-4-4v-2.5c0-2.2 1.8-4 4-4h15.8c2.2 0 4 1.8 4 4v2.5c0 2.2-1.8 4-4 4H90.2z" class="violet-bold"/>
    </g>
</g>
<g>
    <rect x="90.1" y="1765.4" width="16" height="63" class="violet-bold"/>
    <g>
        <path d="M90.2 1770.7c-2.2 0-4-1.8-4-4v-2.5c0-2.2 1.8-4 4-4h15.8c2.2 0 4 1.8 4 4v2.5c0 2.2-1.8 4-4 4H90.2z" class="violet-bold"/>
        <path d="M90.2 1770.7c-2.2 0-4-1.8-4-4v-2.5c0-2.2 1.8-4 4-4h15.8c2.2 0 4 1.8 4 4v2.5c0 2.2-1.8 4-4 4H90.2z" class="violet-bold"/>
    </g>
</g>
<g>
    <rect x="90.1" y="1829.2" width="16" height="63" class="violet-bold"/>
    <g>
        <path d="M90.2 1834.4c-2.2 0-4-1.8-4-4v-2.5c0-2.2 1.8-4 4-4h15.8c2.2 0 4 1.8 4 4v2.5c0 2.2-1.8 4-4 4H90.2z" class="violet-bold"/>
        <path d="M90.2 1834.4c-2.2 0-4-1.8-4-4v-2.5c0-2.2 1.8-4 4-4h15.8c2.2 0 4 1.8 4 4v2.5c0 2.2-1.8 4-4 4H90.2z" class="violet-bold"/>
    </g>
</g>
<g>
    <g>
        <path d="M127.5 1689.7c0 2.2-1.8 4-4 4H72.7c-2.2 0-4-1.8-4-4v-97.1c0-2.2 1.8-4 4-4h50.9c2.2 0 4 1.8 4 4V1689.7z" class="violet-bold"/>
        <path d="M127.5 1689.7c0 2.2-1.8 4-4 4H72.7c-2.2 0-4-1.8-4-4v-97.1c0-2.2 1.8-4 4-4h50.9c2.2 0 4 1.8 4 4V1689.7z" class="violet-bold"/>
    </g>
    <rect x="75.9" y="1602" width="44.3" height="78.2" class="violet-dashed"/>
    <line x1="88.6" y1="1595.8" x2="107.5" y2="1595.8" class="violet-bold"/>
</g>
<polygon points="75.8 1582.1 75.8 1595.1 82.5 1595.1 82.5 1588.6 113.5 1588.6 113.5 1595.1 120.1 1595.1 120.1 1582.1 " class="violet-bold"/>
<polygon points="75.8 1700.3 75.8 1687.3 82.5 1687.3 82.5 1693.8 113.5 1693.8 113.5 1687.3 120.1 1687.3 120.1 1700.3 " class="violet-bold"/>
<circle cx="98.1" cy="1622.7" r="3.9" class="green"/>
<circle cx="98.1" cy="1641.2" r="3.9" class="green"/>
<circle cx="98.1" cy="1659.7" r="3.9" class="green"/>
</svg>
