<?xml version="1.0"?>
<?xml-stylesheet href="../css/svg.css" type="text/css"?>
<svg version="1.0" id="Layer_1" xmlns:x="&ns_extend;" xmlns:i="&ns_ai;" xmlns:graph="&ns_graphs;"
	 xmlns="http://www.w3.org/2000/svg" xmlns:xlink="http://www.w3.org/1999/xlink" xmlns:a="http://ns.adobe.com/AdobeSVGViewerExtensions/3.0/"
	 x="0px" y="0px" width="148.333px" height="83.243px" viewBox="0 0 148.333 83.243" enable-background="new 0 0 148.333 83.243"
	 xml:space="preserve">
<path fill="none" stroke="#5EBD74" stroke-width="3" stroke-miterlimit="10" d="M146.836,77.018c0,2.648-2.146,4.795-4.794,4.795
	H83.914c-2.648,0-4.795-2.146-4.795-4.795V18.891c0-2.648,2.146-4.795,4.795-4.795h58.128c2.647,0,4.794,2.146,4.794,4.795V77.018z"
	/>
<circle fill="#FFF200" cx="125.734" cy="14.096" r="14.096"/>
<path fill="#181819" d="M131.689,8.75h-11.911c-0.537,0-0.972,0.434-0.972,0.971v0.145v2.953v5.654c0,0.535,0.435,0.971,0.972,0.971
	h11.911c0.537,0,0.973-0.436,0.973-0.971v-5.654V9.865V9.721C132.662,9.184,132.227,8.75,131.689,8.75z M130.717,17.5h-9.967v-4.682
	h9.967V17.5z"/>
<g>
	<path d="M9.605,61.21H0.172V36.913h3.972v21.353h5.461V61.21z"/>
	<path d="M19.782,61.21H15.81V41.075c0-2.774,1.586-4.162,4.758-4.162h2.979c3.171,0,4.758,1.388,4.758,4.162V61.21h-3.972v-8.899
		h-4.551V61.21z M24.333,49.366v-8.088c0-0.947-0.579-1.421-1.738-1.421H21.52c-1.158,0-1.738,0.474-1.738,1.421v8.088H24.333z"/>
	<path d="M45.185,48.724c2.179,0.496,3.269,1.421,3.269,2.774v6.091c0,2.414-1.504,3.621-4.51,3.621h-7.985V36.913h6.785
		c3.53,0,5.295,1.467,5.295,4.399v4.67c0,1.398-0.951,2.256-2.854,2.571V48.724z M39.93,47.167h1.862
		c1.517,0,2.275-0.587,2.275-1.76v-3.79c0-1.173-0.593-1.76-1.779-1.76H39.93V47.167z M39.93,58.266h2.979
		c1.048,0,1.572-0.35,1.572-1.049v-5.38c0-1.151-0.786-1.727-2.358-1.727H39.93V58.266z"/>
	<path d="M60.492,61.21c-3.2,0-4.799-1.376-4.799-4.128V41.075c0-2.774,1.586-4.162,4.758-4.162h3.807
		c3.171,0,4.758,1.388,4.758,4.162v16.007c0,2.752-1.6,4.128-4.799,4.128H60.492z M61.443,58.266h2.027
		c1.048,0,1.572-0.474,1.572-1.421V41.278c0-0.947-0.594-1.421-1.779-1.421h-1.862c-1.158,0-1.738,0.474-1.738,1.421v15.566
		C59.664,57.792,60.257,58.266,61.443,58.266z"/>
	<path d="M76.669,36.913h7.777c3.034,0,4.551,1.388,4.551,4.162v5.99c0,2.12-0.785,3.463-2.357,4.026l2.771,10.118h-3.765
		l-2.606-9.813h-2.4v9.813h-3.971V36.913z M80.64,48.622h2.607c1.186,0,1.779-0.587,1.779-1.76v-5.245
		c0-1.173-0.594-1.76-1.779-1.76H80.64V48.622z"/>
	<path d="M100.415,61.21h-3.971V36.913h3.971V61.21z M109.56,61.21h-3.973l-4.965-11.878v-0.203l4.138-12.216h3.641l-4.179,12.081
		L109.56,61.21z"/>
	<path d="M119.736,61.21h-3.972V41.075c0-2.774,1.586-4.162,4.758-4.162h2.979c3.172,0,4.758,1.388,4.758,4.162V61.21h-3.971v-8.899
		h-4.552V61.21z M124.288,49.366v-8.088c0-0.947-0.58-1.421-1.738-1.421h-1.076c-1.158,0-1.737,0.474-1.737,1.421v8.088H124.288z"/>
</g>
</svg>
