<?xml version="1.0" encoding="utf-8"?>
<!-- Generator: Adobe Illustrator 16.0.0, SVG Export Plug-In . SVG Version: 6.00 Build 0)  -->
<!DOCTYPE svg PUBLIC "-//W3C//DTD SVG 1.1//EN" "http://www.w3.org/Graphics/SVG/1.1/DTD/svg11.dtd">
<svg version="1.1" id="Layer_1" xmlns="http://www.w3.org/2000/svg" xmlns:xlink="http://www.w3.org/1999/xlink" x="0px" y="0px"
	 width="70.717px" height="83.312px" viewBox="0 0 70.717 83.312" enable-background="new 0 0 70.717 83.312" xml:space="preserve">
<g>
	<g>
		<path fill="#5EBD74" d="M64.423,83.312H6.295C2.824,83.312,0,80.488,0,77.017V18.891c0-3.472,2.824-6.295,6.295-6.295h58.128
			c3.471,0,6.294,2.823,6.294,6.295v58.126C70.717,80.488,67.894,83.312,64.423,83.312z M6.295,15.596
			C4.479,15.596,3,17.073,3,18.891v58.126c0,1.817,1.479,3.295,3.295,3.295h58.128c1.816,0,3.294-1.478,3.294-3.295V18.891
			c0-1.817-1.478-3.295-3.294-3.295H6.295z"/>
	</g>
	<g>
		<circle fill="#FFF200" cx="48.115" cy="14.096" r="14.096"/>
	</g>
	<g>
		<g>
			<path fill="#181819" d="M54.07,8.75H42.159c-0.537,0-0.972,0.434-0.972,0.971v0.145v2.953v5.654c0,0.535,0.435,0.971,0.972,0.971
				H54.07c0.537,0,0.973-0.436,0.973-0.971v-5.654V9.865V9.721C55.043,9.184,54.607,8.75,54.07,8.75z M53.098,17.5h-9.967v-4.682
				h9.967V17.5z"/>
		</g>
	</g>
	<g>
		<path d="M26.812,62.773H15.306V33.134h4.845v26.048h6.661V62.773z"/>
	</g>
</g>
</svg>
