<?xml version="1.0" encoding="utf-8"?>
<!-- Generator: Adobe Illustrator 16.0.0, SVG Export Plug-In . SVG Version: 6.00 Build 0)  -->
<!DOCTYPE svg PUBLIC "-//W3C//DTD SVG 1.0//EN" "http://www.w3.org/TR/2001/REC-SVG-20010904/DTD/svg10.dtd" [
	<!ENTITY ns_flows "http://ns.adobe.com/Flows/1.0/">
	<!ENTITY ns_extend "http://ns.adobe.com/Extensibility/1.0/">
	<!ENTITY ns_ai "http://ns.adobe.com/AdobeIllustrator/10.0/">
	<!ENTITY ns_graphs "http://ns.adobe.com/Graphs/1.0/">
]>
<svg version="1.0" xmlns:x="&ns_extend;" xmlns:i="&ns_ai;" xmlns:graph="&ns_graphs;"
	 xmlns="http://www.w3.org/2000/svg" xmlns:xlink="http://www.w3.org/1999/xlink" xmlns:a="http://ns.adobe.com/AdobeSVGViewerExtensions/3.0/"
	 x="0px" y="0px" width="57px" height="289px" viewBox="0 0 57 289" enable-background="new 0 0 57 289" xml:space="preserve">
<g id="piping" display="none">
	<g id="pipeline_x5F_straight_1_" display="inline">
		
			<rect id="pipe_2_" x="20.701" y="8.022" fill="#FFFFFF" stroke="#735DA8" stroke-width="3" stroke-miterlimit="10" width="16.04" height="62.997"/>
		<g id="pipeneck_4_">
			<path fill="#FFFFFF" d="M20.815,13.256c-2.2,0-4-1.8-4-4V6.788c0-2.2,1.8-4,4-4h15.812c2.2,0,4,1.8,4,4v2.469c0,2.2-1.8,4-4,4
				H20.815z"/>
			<path fill="none" stroke="#735DA8" stroke-width="3" stroke-miterlimit="10" d="M20.815,13.256c-2.2,0-4-1.8-4-4V6.788
				c0-2.2,1.8-4,4-4h15.812c2.2,0,4,1.8,4,4v2.469c0,2.2-1.8,4-4,4H20.815z"/>
		</g>
	</g>
	<g id="pipeline_x5F_straight_2_" display="inline">
		
			<rect id="pipe_3_" x="20.701" y="71.752" fill="#FFFFFF" stroke="#735DA8" stroke-width="3" stroke-miterlimit="10" width="16.04" height="62.997"/>
		<g id="pipeneck_8_">
			<path fill="#FFFFFF" d="M20.815,76.987c-2.2,0-4-1.8-4-4v-2.469c0-2.2,1.8-4,4-4h15.812c2.2,0,4,1.8,4,4v2.469c0,2.2-1.8,4-4,4
				H20.815z"/>
			<path fill="none" stroke="#735DA8" stroke-width="3" stroke-miterlimit="10" d="M20.815,76.987c-2.2,0-4-1.8-4-4v-2.469
				c0-2.2,1.8-4,4-4h15.812c2.2,0,4,1.8,4,4v2.469c0,2.2-1.8,4-4,4H20.815z"/>
		</g>
	</g>
	<g id="pipeline_x5F_straight_4_" display="inline">
		
			<rect id="pipe_5_" x="20.701" y="134.688" fill="#FFFFFF" stroke="#735DA8" stroke-width="3" stroke-miterlimit="10" width="16.04" height="62.997"/>
		<g id="pipeneck_12_">
			<path fill="#FFFFFF" d="M20.815,139.923c-2.2,0-4-1.8-4-4v-2.469c0-2.2,1.8-4,4-4h15.812c2.2,0,4,1.8,4,4v2.469c0,2.2-1.8,4-4,4
				H20.815z"/>
			<path fill="none" stroke="#735DA8" stroke-width="3" stroke-miterlimit="10" d="M20.815,139.923c-2.2,0-4-1.8-4-4v-2.469
				c0-2.2,1.8-4,4-4h15.812c2.2,0,4,1.8,4,4v2.469c0,2.2-1.8,4-4,4H20.815z"/>
		</g>
	</g>
	<g id="pipeline_x5F_straight_3_" display="inline">
		
			<rect id="pipe_4_" x="20.701" y="198.419" fill="#FFFFFF" stroke="#735DA8" stroke-width="3" stroke-miterlimit="10" width="16.04" height="62.997"/>
		<g id="pipeneck_10_">
			<path fill="#FFFFFF" d="M20.815,203.653c-2.2,0-4-1.8-4-4v-2.469c0-2.2,1.8-4,4-4h15.812c2.2,0,4,1.8,4,4v2.469c0,2.2-1.8,4-4,4
				H20.815z"/>
			<path fill="none" stroke="#735DA8" stroke-width="3" stroke-miterlimit="10" d="M20.815,203.653c-2.2,0-4-1.8-4-4v-2.469
				c0-2.2,1.8-4,4-4h15.812c2.2,0,4,1.8,4,4v2.469c0,2.2-1.8,4-4,4H20.815z"/>
		</g>
	</g>
	<g id="shower_1_" display="inline">
		<path id="shower_x5F_shape_1_" fill="none" stroke="#735DA8" stroke-width="3" stroke-miterlimit="10" d="M3.249,286.168h50.943
			c0-7.945-5.717-14.818-14.043-18.161c0.188-0.369,0.303-0.781,0.303-1.222v-1.877c0-1.505-1.23-2.735-2.734-2.735H19.725
			c-1.504,0-2.736,1.23-2.736,2.735v1.877c0,0.44,0.115,0.853,0.305,1.222C8.965,271.35,3.249,278.223,3.249,286.168z"/>
		<g id="showerneck_1_">
			<path fill="#FFFFFF" d="M36.625,258.185c2.2,0,4,1.8,4,4v2.469c0,2.2-1.8,4-4,4H20.815c-2.2,0-4-1.8-4-4v-2.469c0-2.2,1.8-4,4-4
				H36.625z"/>
			<path fill="none" stroke="#735DA8" stroke-width="3" stroke-miterlimit="10" d="M36.625,258.185c2.2,0,4,1.8,4,4v2.469
				c0,2.2-1.8,4-4,4H20.815c-2.2,0-4-1.8-4-4v-2.469c0-2.2,1.8-4,4-4H36.625z"/>
		</g>
	</g>
</g>
<g id="Layer_2">
	<g id="pipeline_x5F_straight_24_">
		
			<rect id="pipe_33_" x="20.701" y="8.022" fill="#FFFFFF" stroke="#735DA8" stroke-width="3" stroke-miterlimit="10" width="16.04" height="62.997"/>
		<g id="pipeneck_68_">
			<path fill="#FFFFFF" d="M20.815,13.256c-2.2,0-4-1.8-4-4V6.788c0-2.2,1.8-4,4-4h15.812c2.2,0,4,1.8,4,4v2.469c0,2.2-1.8,4-4,4
				H20.815z"/>
			<path fill="none" stroke="#735DA8" stroke-width="3" stroke-miterlimit="10" d="M20.815,13.256c-2.2,0-4-1.8-4-4V6.788
				c0-2.2,1.8-4,4-4h15.812c2.2,0,4,1.8,4,4v2.469c0,2.2-1.8,4-4,4H20.815z"/>
		</g>
	</g>
	<g id="pipeline_x5F_straight_23_">
		
			<rect id="pipe_32_" x="20.701" y="71.752" fill="#FFFFFF" stroke="#735DA8" stroke-width="3" stroke-miterlimit="10" width="16.04" height="62.997"/>
		<g id="pipeneck_66_">
			<path fill="#FFFFFF" d="M20.815,76.987c-2.2,0-4-1.8-4-4v-2.469c0-2.2,1.8-4,4-4h15.812c2.2,0,4,1.8,4,4v2.469c0,2.2-1.8,4-4,4
				H20.815z"/>
			<path fill="none" stroke="#735DA8" stroke-width="3" stroke-miterlimit="10" d="M20.815,76.987c-2.2,0-4-1.8-4-4v-2.469
				c0-2.2,1.8-4,4-4h15.812c2.2,0,4,1.8,4,4v2.469c0,2.2-1.8,4-4,4H20.815z"/>
		</g>
	</g>
	<g id="pipeline_x5F_straight_22_">
		
			<rect id="pipe_31_" x="20.701" y="134.688" fill="#FFFFFF" stroke="#735DA8" stroke-width="3" stroke-miterlimit="10" width="16.04" height="62.997"/>
		<g id="pipeneck_64_">
			<path fill="#FFFFFF" d="M20.815,139.923c-2.2,0-4-1.8-4-4v-2.469c0-2.2,1.8-4,4-4h15.812c2.2,0,4,1.8,4,4v2.469c0,2.2-1.8,4-4,4
				H20.815z"/>
			<path fill="none" stroke="#735DA8" stroke-width="3" stroke-miterlimit="10" d="M20.815,139.923c-2.2,0-4-1.8-4-4v-2.469
				c0-2.2,1.8-4,4-4h15.812c2.2,0,4,1.8,4,4v2.469c0,2.2-1.8,4-4,4H20.815z"/>
		</g>
	</g>
	<g id="pipeline_x5F_straight_21_">
		
			<rect id="pipe_30_" x="20.701" y="198.419" fill="#FFFFFF" stroke="#735DA8" stroke-width="3" stroke-miterlimit="10" width="16.04" height="62.997"/>
		<g id="pipeneck_62_">
			<path fill="#FFFFFF" d="M20.815,203.653c-2.2,0-4-1.8-4-4v-2.469c0-2.2,1.8-4,4-4h15.812c2.2,0,4,1.8,4,4v2.469c0,2.2-1.8,4-4,4
				H20.815z"/>
			<path fill="none" stroke="#735DA8" stroke-width="3" stroke-miterlimit="10" d="M20.815,203.653c-2.2,0-4-1.8-4-4v-2.469
				c0-2.2,1.8-4,4-4h15.812c2.2,0,4,1.8,4,4v2.469c0,2.2-1.8,4-4,4H20.815z"/>
		</g>
	</g>
	<g id="shower_2_">
		<path id="shower_x5F_shape_2_" fill="none" stroke="#735DA8" stroke-width="3" stroke-miterlimit="10" d="M3.249,286.168h50.943
			c0-7.945-5.717-14.818-14.043-18.161c0.188-0.369,0.303-0.781,0.303-1.222v-1.877c0-1.505-1.23-2.735-2.734-2.735H19.725
			c-1.504,0-2.736,1.23-2.736,2.735v1.877c0,0.44,0.115,0.853,0.305,1.222C8.965,271.35,3.249,278.223,3.249,286.168z"/>
		<g id="showerneck_2_">
			<path fill="#FFFFFF" d="M36.625,258.185c2.2,0,4,1.8,4,4v2.469c0,2.2-1.8,4-4,4H20.815c-2.2,0-4-1.8-4-4v-2.469c0-2.2,1.8-4,4-4
				H36.625z"/>
			<path fill="none" stroke="#735DA8" stroke-width="3" stroke-miterlimit="10" d="M36.625,258.185c2.2,0,4,1.8,4,4v2.469
				c0,2.2-1.8,4-4,4H20.815c-2.2,0-4-1.8-4-4v-2.469c0-2.2,1.8-4,4-4H36.625z"/>
		</g>
	</g>
</g>
</svg>
