<?xml version="1.0"?>
<?xml-stylesheet href="../css/svg.css" type="text/css"?>
<svg xmlns="http://www.w3.org/2000/svg" width="100%" height="100%" viewBox="0 0 327.9 140.7">
<g class="bush-bcg">
    <line x1="36.1" y1="27.7" x2="307.8" y2="27.7" class="green-dashed"/>
    <line y1="43.7" x2="271.7" y2="43.7" class="green-dashed"/>
    <line x1="56.3" y1="59.7" x2="327.9" y2="59.7" class="green-dashed"/>
    <line x1="20.2" y1="75.7" x2="291.8" y2="75.7" class="green-dashed"/>
    <line x1="56.3" y1="91.7" x2="327.9" y2="91.7" class="green-dashed"/>
    <line y1="107.8" x2="271.7" y2="107.8" class="green-dashed"/>
    <line x1="36.1" y1="123.8" x2="307.8" y2="123.8" class="green-dashed"/>
</g>
<g class="smartphone">
    <path d="M245.5 135.2c0 2.2-1.8 4-4 4h-63.2c-2.2 0-4-1.8-4-4v-119c0-2.2 1.8-4 4-4h63.2c2.2 0 4 1.8 4 4V135.2z" class="violet-bold"/>
    <rect x="183.1" y="28.4" width="53.6" height="94.6" class="violet-dashed"/>
    <line x1="198.5" y1="21" x2="221.4" y2="21" class="violet-bold"/>
</g>
<g class="magniflyer">
    <path d="M78.4 63c-1.6-1.6-1.6-4.1 0-5.7l15.5-15.5c1.6-1.6 4.1-1.6 5.7 0l5.3 5.3c1.6 1.6 1.6 4.1 0 5.7L89.3 68.2c-1.6 1.6-4.1 1.6-5.7 0L78.4 63z" class="violet-bold"/>
    <circle cx="117" cy="29.6" r="28.1" class="violet-bold"/>
    <circle cx="117" cy="29.6" r="20.6" class="violet-dashed"/>
	 <g class="browsereye">
	    <circle cx="117" cy="29.6" r="14.1" class="yellow"/>
		 <circle cx="117" cy="29.6" r="7.852" class="dark iris blinking-closed"/>
	    <polyline points="123 29 117.3 33 111.6 29 " class="dark-stroke iris"/>
 	 </g>
</g>
 <g class="ruler">
     <path d="M201.8 113.4c0 2.2-1.8 4-4 4H73.8c-2.2 0-4-1.8-4-4V96.1c0-2.2 1.8-4 4-4h124c2.2 0 4 1.8 4 4V113.4z" class="green-bold"/>
	  <line x1="85.1" y1="92.1" x2="85.1" y2="104.8" class="green-dashed"/>
     <line x1="99.7" y1="92.1" x2="99.7" y2="104.8" class="green-dashed"/>
     <line x1="114.4" y1="92.1" x2="114.4" y2="104.8" class="green-dashed"/>
     <line x1="129" y1="92.1" x2="129" y2="104.8" class="green-dashed"/>
     <line x1="143.7" y1="92.1" x2="143.7" y2="104.8" class="green-dashed"/>
     <line x1="158.3" y1="92.1" x2="158.3" y2="104.8" class="green-dashed"/>
     <line x1="173" y1="92.1" x2="173" y2="104.8" class="green-dashed"/>
     <line x1="187.6" y1="92.1" x2="187.6" y2="104.8" class="green-dashed"/>
 </g>
</svg>
