<?xml version="1.0"?>
<?xml-stylesheet href="../css/svg.css?tst=1" type="text/css"?>
<svg xmlns="http://www.w3.org/2000/svg" width="170" height="300" style="padding: 50px">
<style>.a{fill:#FFF;stroke-width:3;stroke:#735DA8;}.b{fill:#FFF;stroke-linejoin:round;stroke-width:3;stroke:#735DA8;}</style>
<g class="transportabot">
	<g class="hand">
		<line x1="52.5" y1="53.3" x2="52.5" y2="155.2" class="violet-bold rope" />
		<polygon points=" 27.6 192.5 26.5 177.7 46 161 49.9 165.5 32.7 180.3 33.5 192.1 " class="violet-bold"/>
		<polygon points=" 77.4 192.5 78.5 177.7 59 161 55.1 165.5 72.3 180.3 71.5 192.1 " class="violet-bold"/>
		<circle cx="53" cy="163.3" r="8.1" class="violet-bold"/>
	</g>
    <ellipse cx="52.5" cy="11.5" rx="34.4" ry="10" class="violet-bold"/>
    <g>
        <ellipse cx="52.5" cy="11.5" rx="22" ry="5" class="violet-dashed"/>
    </g>
    <path d="M55.4 12.5c0 0-0.7-1-2.9-1s-2.9 1-2.9 1v18.8h5.7V12.5z" class="violet-bold"/>
    <circle cx="52.5" cy="82.3" r="51" class="violet-bold"/>
    <circle cx="52.5" cy="82.3" r="22" class="violet-dashed"/>
    <g>
        <circle cx="52.5" cy="82.3" r="14.1" class="yellow"/>
        <path d="M58.5 76.9h-11.9c-0.5 0-1 0.4-1 1v0.1 3 5.7c0 0.5 0.4 1 1 1h11.9c0.5 0 1-0.4 1-1v-5.7 -3 -0.1C59.4 77.3 59 76.9 58.5 76.9zM57.5 85.7h-10v-4.7h10V85.7z" class="dark"/>
    </g>
</g>
</svg>
