<?xml version="1.0"?>
<?xml-stylesheet href="../css/svg.css" type="text/css"?>
<svg xmlns="http://www.w3.org/2000/svg" width="100%" height="100%" viewBox="0 0 311.097 313.832">
   <g class="pipeline">
      <path d="M188.122 200.35c2.2 0 4 1.8 4 4v8.04c0 2.2-1.8 4-4 4h-10.977c-2.2 0-4 1.8-4 4v10.978c0 2.2-1.8 4-4 4h-8.041c-2.2 0-4-1.8-4-4V216.39c0 0-1.244-16.04 17.509-16.04S188.122 200.35 188.122 200.35z" class="green-bold"/>
      <rect x="191.12" y="200.548" width="62.997" height="16.04" class="green-bold"></rect>
      <g>
         <path d="M196.354 216.474c0 2.2-1.8 4-4 4h-2.469c-2.2 0-4-1.8-4-4v-15.812c0-2.2 1.8-4 4-4h2.469c2.2 0 4 1.8 4 4V216.474z" class="white"/>
         <path d="M196.354 216.474c0 2.2-1.8 4-4 4h-2.469c-2.2 0-4-1.8-4-4v-15.812c0-2.2 1.8-4 4-4h2.469c2.2 0 4 1.8 4 4V216.474z" class="green-nofill"/>
      </g>
      <path d="M71.775 270.204c2.2 0 4-1.8 4-4v-8.04c0-2.2-1.8-4-4-4H60.799c-2.2 0-4-1.8-4-4v-10.978c0-2.2-1.8-4-4-4h-8.041c-2.2 0-4 1.8-4 4v14.978c0 0-1.244 16.04 17.509 16.04S71.775 270.204 71.775 270.204z" class="green-bold"/>
      <g>
         <path d="M40.869 240.421c-2.2 0-4-1.8-4-4v-2.469c0-2.2 1.8-4 4-4h15.813c2.2 0 4 1.8 4 4v2.469c0 2.2-1.8 4-4 4H40.869z" class="white"/>
         <path d="M40.869 240.421c-2.2 0-4-1.8-4-4v-2.469c0-2.2 1.8-4 4-4h15.813c2.2 0 4 1.8 4 4v2.469c0 2.2-1.8 4-4 4H40.869z" class="green-nofill"/>
      </g>
      <rect x="74.773" y="253.966" width="62.997" height="16.04" class="green-bold"/>
      <g>
         <path d="M80.008 254.08c0-2.2-1.8-4-4-4h-2.469c-2.2 0-4 1.8-4 4v15.812c0 2.2 1.8 4 4 4h2.469c2.2 0 4-1.8 4-4V254.08z" class="white"/>
         <path d="M80.008 254.08c0-2.2-1.8-4-4-4h-2.469c-2.2 0-4 1.8-4 4v15.812c0 2.2 1.8 4 4 4h2.469c2.2 0 4-1.8 4-4V254.08z" class="green-nofill"/>
      </g>
      <path d="M142.122 270.204c-2.2 0-4-1.8-4-4v-8.04c0-2.2 1.8-4 4-4h10.977c2.2 0 4-1.8 4-4v-10.978c0-2.2 1.8-4 4-4h8.041c2.2 0 4 1.8 4 4v14.978c0 0 1.244 16.04-17.509 16.04S142.122 270.204 142.122 270.204z" class="green-bold"/>
      <g>
         <path d="M143.356 254.278c0-2.2-1.8-4-4-4h-2.469c-2.2 0-4 1.8-4 4v15.812c0 2.2 1.8 4 4 4h2.469c2.2 0 4-1.8 4-4V254.278z" class="white"/>
         <path d="M143.356 254.278c0-2.2-1.8-4-4-4h-2.469c-2.2 0-4 1.8-4 4v15.812c0 2.2 1.8 4 4 4h2.469c2.2 0 4-1.8 4-4V254.278z" class="green-nofill"/>
      </g>
      <g>
         <path d="M173.028 240.421c2.2 0 4-1.8 4-4v-2.469c0-2.2-1.8-4-4-4h-15.813c-2.2 0-4 1.8-4 4v2.469c0 2.2 1.8 4 4 4H173.028z" class="white"/>
         <path d="M173.028 240.421c2.2 0 4-1.8 4-4v-2.469c0-2.2-1.8-4-4-4h-15.813c-2.2 0-4 1.8-4 4v2.469c0 2.2 1.8 4 4 4H173.028z" class="green-nofill"/>
      </g>
   </g>
   <g class="cog-holder">
      <path d="M71.333 229.164c0 2.2-1.8 4-4 4H18.125c-2.2 0-4-1.8-4-4V170.16c0-2.2 1.8-4 4-4h49.208c2.2 0 4 1.8 4 4V229.164z" class="white"/>
      <path d="M71.333 229.164c0 2.2-1.8 4-4 4H18.125c-2.2 0-4-1.8-4-4V170.16c0-2.2 1.8-4 4-4h49.208c2.2 0 4 1.8 4 4V229.164z" class="violet-nofill"/>
   </g>
   <g class="cog">
      <path
         d="M49.693 204.876c1.532 0 2.785-1.8 2.785-4v-1.894c0-2.2-1.253-4-2.785-4s-3.052-0.795-3.379-1.766 -0.637-4.227 0.447-5.311c1.083-1.083 0.697-3.242-0.858-4.798l-1.34-1.341c-1.556-1.556-3.715-1.941-4.799-0.857 -1.084 1.083-2.71 1.599-3.615 1.145 -0.904-0.453-3.46-2.545-3.46-4.077s-1.8-2.785-4-2.785h-1.894c-2.2 0-4 1.253-4 2.785s-0.794 3.053-1.766 3.379 -4.227 0.638-5.311-0.446 -3.243-0.698-4.799 0.857l-1.34 1.34c-1.556 1.557-1.941 3.716-0.858 4.799 1.083 1.084 1.599 2.711 1.146 3.615s-2.546 3.461-4.078 3.461 -2.785 1.8-2.785 4v1.894c0 2.2 1.253 4 2.785 4s3.052 0.794 3.379 1.765c0.327 0.972 0.637 4.227-0.447 5.311s-0.698 3.243 0.858 4.799l1.34 1.34c1.556 1.557 3.715 1.942 4.799 0.859 1.084-1.084 2.711-1.6 3.615-1.146 0.904 0.454 3.461 2.546 3.461 4.078s1.8 2.785 4 2.785h1.894c2.2 0 4-1.253 4-2.785s0.794-3.053 1.765-3.379 4.226-0.637 5.31 0.447c1.084 1.083 3.244 0.697 4.799-0.858l1.34-1.341c1.556-1.556 1.942-3.715 0.858-4.799s-1.599-2.711-1.146-3.615C46.069 207.433 48.162 204.876 49.693 204.876zM37.637 199.929c0 5.468-4.423 9.896-9.896 9.896 -5.451 0-9.894-4.41-9.894-9.896 0-5.469 4.427-9.894 9.894-9.894C33.209 190.035 37.637 194.457 37.637 199.929z"
         class="white"/>
      <path
         d="M49.693 204.876c1.532 0 2.785-1.8 2.785-4v-1.894c0-2.2-1.253-4-2.785-4s-3.052-0.795-3.379-1.766 -0.637-4.227 0.447-5.311c1.083-1.083 0.697-3.242-0.858-4.798l-1.34-1.341c-1.556-1.556-3.715-1.941-4.799-0.857 -1.084 1.083-2.71 1.599-3.615 1.145 -0.904-0.453-3.46-2.545-3.46-4.077s-1.8-2.785-4-2.785h-1.894c-2.2 0-4 1.253-4 2.785s-0.794 3.053-1.766 3.379 -4.227 0.638-5.311-0.446 -3.243-0.698-4.799 0.857l-1.34 1.34c-1.556 1.557-1.941 3.716-0.858 4.799 1.083 1.084 1.599 2.711 1.146 3.615s-2.546 3.461-4.078 3.461 -2.785 1.8-2.785 4v1.894c0 2.2 1.253 4 2.785 4s3.052 0.794 3.379 1.765c0.327 0.972 0.637 4.227-0.447 5.311s-0.698 3.243 0.858 4.799l1.34 1.34c1.556 1.557 3.715 1.942 4.799 0.859 1.084-1.084 2.711-1.6 3.615-1.146 0.904 0.454 3.461 2.546 3.461 4.078s1.8 2.785 4 2.785h1.894c2.2 0 4-1.253 4-2.785s0.794-3.053 1.765-3.379 4.226-0.637 5.31 0.447c1.084 1.083 3.244 0.697 4.799-0.858l1.34-1.341c1.556-1.556 1.942-3.715 0.858-4.799s-1.599-2.711-1.146-3.615C46.069 207.433 48.162 204.876 49.693 204.876zM37.637 199.929c0 5.468-4.423 9.896-9.896 9.896 -5.451 0-9.894-4.41-9.894-9.896 0-5.469 4.427-9.894 9.894-9.894C33.209 190.035 37.637 194.457 37.637 199.929z"
         class="violet-nofill"/>
      <circle cx="27.741" cy="199.93" r="13.864" class="cog-spin violet-dashed"/>
   </g>
   <g class="vials-line">
      <path
         d="M118.952 205.398V96.29c0-7.7 6.3-14 14-14h4.17c7.7 0 14 6.3 14 14v44.291c0 7.7 6.3 14 14 14h0.966c7.7 0 14-6.3 14-14V95.928c0-7.7 6.3-14 14-14h2.94c7.7 0 14 6.3 14 14v44.653c0 7.7 6.3 14 14 14h7.61c7.7 0 14 5.234 14 11.632 0 6.396 0 11.631 0 11.631"
         class="green-nofill"/>
   </g>
   <g class="vial-rounded">
      <path d="M261.159 220.746v-29.555h-29.738v29.555c-13.272 5.753-22.561 18.965-22.561 34.353 0 20.672 16.758 37.43 37.43 37.43s37.43-16.758 37.43-37.43C283.72 239.711 274.432 226.499 261.159 220.746z" class="green-bold"/>
      <g>
         <path d="M268.108 181.844c0-2.2-1.8-4-4-4H229.45c-2.2 0-4 1.8-4 4v5.085c0 2.2 1.8 4 4 4h34.658c2.2 0 4-1.8 4-4V181.844z" class="white"/>
         <path d="M268.108 181.844c0-2.2-1.8-4-4-4H229.45c-2.2 0-4 1.8-4 4v5.085c0 2.2 1.8 4 4 4h34.658c2.2 0 4-1.8 4-4V181.844z" class="green-nofill"/>
      </g>
      <line x1="208.786" y1="251.023" x2="283.72" y2="251.023" class="green-dashed"/>
   </g>
   <g class="vial-standard">
      <path d="M133.821 278.301v-59.555h-29.738v59.555c0 0 0.048 14 14.869 14S133.821 278.301 133.821 278.301z" class="violet-bold"/>
      <g>
         <path d="M140.169 210c0-2.2-1.799-4-4-4h-34.658c-2.2 0-4 1.8-4 4v5.085c0 2.2 1.8 4 4 4h34.658c2.2 0 4-1.8 4-4V210z" class="white"/>
         <path d="M140.169 210c0-2.2-1.799-4-4-4h-34.658c-2.2 0-4 1.8-4 4v5.085c0 2.2 1.8 4 4 4h34.658c2.2 0 4-1.8 4-4V210z" class="violet-nofill"/>
      </g>
      <line x1="103.656" y1="238.421" x2="133.822" y2="238.421" class="violet-dashed"/>
   </g>
   <g class="fire">
      <g class="flame">
         <path d="M234.135 305.043c0.777 0.777 0.777 2.051 0 2.828l-1.179 1.179c-0.777 0.777-2.051 0.777-2.828 0l-4.008-4.008c-0.777-0.777-0.777-2.051 0-2.828l1.179-1.179c0.777-0.777 2.051-0.777 2.828 0L234.135 305.043z" class="white"/>
         <path d="M234.135 305.043c0.777 0.777 0.777 2.051 0 2.828l-1.179 1.179c-0.777 0.777-2.051 0.777-2.828 0l-4.008-4.008c-0.777-0.777-0.777-2.051 0-2.828l1.179-1.179c0.777-0.777 2.051-0.777 2.828 0L234.135 305.043z" class="violet-nofill"/>
      </g>
      <g class="flame">
         <path d="M249.305 302.207c0-1.1-0.9-2-2-2h-1.666c-1.1 0-2 0.9-2 2v5.668c0 1.1 0.9 2 2 2h1.666c1.1 0 2-0.9 2-2V302.207z" class="white"/>
         <path d="M249.305 302.207c0-1.1-0.9-2-2-2h-1.666c-1.1 0-2 0.9-2 2v5.668c0 1.1 0.9 2 2 2h1.666c1.1 0 2-0.9 2-2V302.207z" class="violet-nofill"/>
      </g>
      <g class="flame">
         <path d="M266.386 305.041c0.777-0.777 0.777-2.051 0-2.828l-1.179-1.179c-0.777-0.777-2.051-0.777-2.828 0l-4.008 4.008c-0.777 0.777-0.777 2.051 0 2.828l1.179 1.179c0.777 0.777 2.051 0.777 2.828 0L266.386 305.041z" class="white"/>
         <path d="M266.386 305.041c0.777-0.777 0.777-2.051 0-2.828l-1.179-1.179c-0.777-0.777-2.051-0.777-2.828 0l-4.008 4.008c-0.777 0.777-0.777 2.051 0 2.828l1.179 1.179c0.777 0.777 2.051 0.777 2.828 0L266.386 305.041z" class="violet-nofill"/>
      </g>
   </g>
   <polygon points="208.86 280.835 208.786 280.835 208.786 308.791 214.534 308.791 214.534 286.584 277.972 286.584 277.972 308.791 283.72 308.791 283.72 280.835 " class="vial-holder green-bold"/>
   <polygon points="82.049 280.835 81.975 280.835 81.975 308.791 87.723 308.791 87.723 286.584 151.16 286.584 151.16 308.791 156.908 308.791 156.908 280.835 " class="vial-holder green-bold"/>
   <g class="laborabot">
      <g class="face">
         <path d="M308.093 124.455c0 2.2-1.8 4-4 4H194.376c-2.2 0-4-1.8-4-4V64.893c0-2.2 1.8-4 4-4h109.717c2.2 0 4 1.8 4 4V124.455z" class="white"/>
         <path d="M308.093 124.455c0 2.2-1.8 4-4 4H194.376c-2.2 0-4-1.8-4-4V64.893c0-2.2 1.8-4 4-4h109.717c2.2 0 4 1.8 4 4V124.455z" class="violet-nofill"/>
      </g>
      <ellipse id="propeller" cx="249.234" cy="13.34" rx="34.417" ry="9.973" class="violet-bold"/>
      <g class="propeller-spin">
         <ellipse cx="249.234" cy="13.34" rx="22.017" ry="4.979" class="white"/>
         <ellipse cx="249.234" cy="13.34" rx="22.017" ry="4.979" class="violet-dashed"/>
      </g>
      <path d="M252.106 14.34c0 0-0.705-1-2.872-1s-2.872 1-2.872 1v18.803h5.744V14.34z" class="hat-holder violet-bold"/>
      <path d="M249.234 31.174c-20.572 0-37.25 13.306-37.25 29.719h74.5C286.484 44.479 269.807 31.174 249.234 31.174z" class="hat violet-bold"/>
      <polyline points=" 249.234 62.291 249.234 104.598 258.112 104.598 " class="nose violet-dashed"/>
      <g class="browsereye">
         <circle cx="278.594" cy="94.598" r="14.096" class="yellow"/>
         <circle cx="278.594" cy="94.598" r="7.852" class="dark iris blinking-opened"/>
         <rect x="273.500" y="97.215" width="9.961" height="1.943" class="dark iris"/>
      </g>
      <g class="browsereye">
         <circle cx="219.253" cy="93.813" r="14.096" class="yellow"/>
         <rect x="214.273" y="97.215" width="9.961" height="1.943" class="dark iris"/>
      </g>
   </g>
</svg>
